<svg width="305" height="305" viewBox="0 0 305 305" fill="none" xmlns="http://www.w3.org/2000/svg">
<path fill-rule="evenodd" clip-rule="evenodd" d="M164.842 0.492194C160.771 0.166159 156.655 0 152.5 0C127.065 0 103.084 6.22685 81.9994 17.2393C81.8706 43.6389 60.4299 65 34 65C31.9192 65 29.8693 64.8676 27.8583 64.6107C11.5345 87.7183 1.47453 115.566 0.149658 145.683C15.1073 155.31 25 172.01 25 191C25 201.958 21.7061 212.153 16.0459 220.667C28.4856 245.52 47.5154 266.501 70.8444 281.32C78.3567 277.284 86.9165 275 96 275C116.893 275 135.015 287.085 143.994 304.767C146.81 304.922 149.646 305 152.5 305C178.378 305 202.75 298.554 224.099 287.181C225.815 258.627 249.515 236 278.5 236C279.04 236 279.578 236.008 280.114 236.023C294.929 213.433 303.908 186.672 304.907 157.883C291.001 147.671 282 131.368 282 113C282 102.93 284.705 93.4806 289.441 85.3154C276.881 59.7622 257.379 38.2372 233.395 23.2003C226.415 26.9028 218.452 29 210 29C190.079 29 172.88 17.3504 164.842 0.492194ZM224 129C246.644 129 265 110.644 265 88C265 65.3563 246.644 47 224 47C201.356 47 183 65.3563 183 88C183 110.644 201.356 129 224 129ZM285 181C285 203.644 266.644 222 244 222C221.356 222 203 203.644 203 181C203 158.356 221.356 140 244 140C266.644 140 285 158.356 285 181ZM133 100C155.644 100 174 81.6437 174 59C174 36.3563 155.644 18 133 18C110.356 18 92 36.3563 92 59C92 81.6437 110.356 100 133 100ZM103 122C103 144.644 84.6437 163 62 163C39.3563 163 21 144.644 21 122C21 99.3563 39.3563 81 62 81C84.6437 81 103 99.3563 103 122ZM82 256C104.644 256 123 237.644 123 215C123 192.356 104.644 174 82 174C59.3563 174 41 192.356 41 215C41 237.644 59.3563 256 82 256ZM214 244C214 266.644 195.644 285 173 285C150.356 285 132 266.644 132 244C132 221.356 150.356 203 173 203C195.644 203 214 221.356 214 244ZM147.311 131.457C147.548 129.715 147.754 128.237 147.765 128.172C147.777 128.111 147.792 128.077 147.796 128.096C147.804 128.119 147.895 128.769 148.002 129.55L148.192 130.933L148.418 132.578L148.639 134.19L148.815 134.558C148.967 134.887 149.002 134.933 149.154 135.009C149.627 135.247 150.253 135.802 150.619 136.311C151.329 137.279 151.997 139.174 152.29 141.023C152.405 141.754 152.447 142.359 152.447 143.378C152.447 143.952 152.462 144.423 152.481 144.423C152.519 144.423 152.489 144.882 152.405 145.475C152.023 148.258 150.993 150.44 149.593 151.44C148.567 152.175 147.411 152.144 146.373 151.355C145.205 150.471 144.271 148.66 143.824 146.432C143.443 144.507 143.435 142.298 143.809 140.365C144.187 138.424 144.984 136.682 145.926 135.756C145.991 135.691 146.232 135.411 146.461 135.132L146.877 134.626L147.311 131.457ZM158.708 128.67C158.692 128.754 158.46 129.952 158.189 131.33C158.094 131.814 157.996 132.312 157.905 132.776C157.737 133.635 157.592 134.373 157.533 134.669L157.372 135.499L157.021 135.733C156.182 136.288 155.48 137.276 155.121 138.393C154.454 140.491 154.16 142.118 154.118 143.971C154.106 144.495 154.08 144.92 154.064 144.92C154.015 144.92 154.022 145.1 154.087 145.667C154.45 148.821 155.69 151.317 157.307 152.171C158.051 152.561 158.937 152.561 159.677 152.171C161.046 151.451 162.176 149.514 162.691 146.999C163.068 145.177 163.095 142.956 162.763 141.092C162.42 139.151 161.645 137.375 160.707 136.368C160.547 136.2 160.245 135.851 160.039 135.599L159.658 135.139L159.211 131.886L159.108 131.141L159.107 131.13C158.908 129.696 158.756 128.604 158.75 128.574C158.742 128.544 158.727 128.586 158.708 128.67ZM134.092 144.461C134.32 142.539 134.923 141.134 135.66 140.801C135.725 140.774 135.828 140.751 135.892 140.748H136.007L135.961 141.023C135.736 142.329 135.854 144.093 136.27 145.636C136.377 146.03 136.625 146.762 136.663 146.804C136.678 146.815 136.819 146.804 136.976 146.769C138.926 146.383 141.569 148.591 143.042 151.849C143.87 153.675 144.244 155.455 144.145 157.098C144.068 158.338 143.725 159.245 143.103 159.873C142.71 160.267 142.378 160.44 141.848 160.531C141.398 160.608 141.005 160.562 140.444 160.371C137.968 159.525 135.484 155.919 134.881 152.289C134.782 151.7 134.71 150.716 134.74 150.395C134.763 150.169 134.755 150.111 134.652 149.878C134.408 149.292 134.214 148.473 134.092 147.504C134 146.765 134 145.227 134.092 144.461ZM170.039 141.042C170.306 142.558 170.089 144.691 169.505 146.356C169.371 146.739 169.333 146.815 169.272 146.811C169.23 146.808 169.032 146.785 168.833 146.762C168.25 146.689 167.7 146.808 166.983 147.164C165.716 147.791 164.408 149.173 163.454 150.873C162.317 152.906 161.733 155.191 161.855 157.113C161.928 158.227 162.233 159.126 162.744 159.735C164.625 161.975 168.524 159.498 170.382 154.885C170.947 153.476 171.233 152.136 171.252 150.758C171.264 150.119 171.271 150.054 171.359 149.839C171.76 148.902 171.973 147.55 171.973 145.992C171.973 144.224 171.691 142.727 171.172 141.735C170.867 141.157 170.42 140.748 170.089 140.748H169.989L170.039 141.042ZM150.352 155.8C150.917 155.517 151.691 155.298 152.332 155.245C154.301 155.076 156.243 156.003 157.452 157.687C157.616 157.913 157.75 158.215 158.322 159.678C159.127 161.726 159.169 161.821 159.513 162.338C159.948 162.997 160.577 163.617 161.23 164.034C161.832 164.421 162.256 164.593 163.465 164.945C164.457 165.232 164.606 165.305 165.197 165.787C166.147 166.568 166.975 167.916 167.25 169.129C167.788 171.53 167.09 173.872 165.365 175.442C164.568 176.169 163.622 176.64 162.458 176.889C161.985 176.992 160.955 177.015 160.573 176.931C159.856 176.774 159.406 176.571 158.471 175.978C156.495 174.726 155.262 174.198 153.63 173.895C153.027 173.781 151.775 173.773 151.188 173.872C149.807 174.114 148.632 174.615 146.972 175.672C146.426 176.016 146.255 176.108 145.839 176.276C145.453 176.43 144.576 176.709 144.282 176.774C143.935 176.847 143.233 176.832 142.89 176.74C142.603 176.663 141.589 176.254 141.207 176.062C140.173 175.538 139.181 174.527 138.616 173.421C138.151 172.502 137.926 171.553 137.926 170.469C137.922 169.328 138.14 168.429 138.639 167.472C138.99 166.806 139.208 166.496 139.635 166.048C140.524 165.121 142.13 164.245 143.786 163.793C144.702 163.54 145.808 162.675 146.525 161.657C146.606 161.546 146.877 160.968 147.128 160.374C147.975 158.399 148.464 157.526 149.253 156.592C149.524 156.271 149.776 156.087 150.352 155.8Z" fill="white"/>
<path fill-rule="evenodd" clip-rule="evenodd" d="M224 129C246.644 129 265 110.644 265 88C265 65.3563 246.644 47 224 47C201.356 47 183 65.3563 183 88C183 110.644 201.356 129 224 129ZM224 106C233.941 106 242 97.9411 242 88C242 78.0589 233.941 70 224 70C214.059 70 206 78.0589 206 88C206 97.9411 214.059 106 224 106Z" fill="#FF0000"/>
</svg>
